<?xml version="1.0" encoding="UTF-8"?>
<svg id="Capa_1" data-name="Capa 1" xmlns="http://www.w3.org/2000/svg" viewBox="0 0 1024 190.35">
  <defs>
    <style>
      .cls-1, .cls-2 {
        fill: #fff;
      }

      .cls-2 {
        stroke: #fff;
        stroke-miterlimit: 10;
        stroke-width: 2px;
      }

      .cls-3 {
        fill: #1898cb;
      }
    </style>
  </defs>
  <g>
    <path class="cls-1" d="M597.67,12.61c-45.64-.03-82.65,36.98-82.62,82.62.03,44.88,37.62,82.47,82.5,82.5,45.64.03,82.65-36.98,82.62-82.62-.03-44.88-37.62-82.47-82.5-82.5ZM599.1,123.63c-16.91.86-30.79-13.03-29.94-29.93.73-14.48,12.49-26.24,26.97-26.98,16.91-.86,30.8,13.03,29.95,29.94-.73,14.48-12.5,26.24-26.97,26.97Z"/>
    <rect class="cls-1" x="649.79" y="60.64" width="251.89" height="63.04"/>
    <path class="cls-1" d="M931.01,72.4c0-6.5,5.27-11.77,11.77-11.77h52.96c5.46,0,9.86,1.56,9.76-3.9h0c-.08-4.09-1.44-8.06-3.91-11.32-19.56-25.83-53.77-39.9-90.45-29.18-27.12,7.93-47.84,29.53-54.92,56.89-14.27,55.1,26.93,104.61,79.71,104.61,31.71,0,58.92-18.08,72.75-44.3l-.97,1.78c2.66-8.76-3.4-11.54-8.8-11.54h-56.13c-6.5,0-11.77-5.27-11.77-11.77v-39.5Z"/>
  </g>
  <g>
    <path class="cls-2" d="M15.34,171.11l9.24-16.03,57.57-108.4,6.12-12.13c1.78-3.56,4.27-8.68,7.46-15.36,13.06.15,22.59.22,28.6.22,10.46,0,20.14-.07,29.05-.22l16.24,46.41,33.03,89.26,6.45,16.25c-12.85-.15-20.65-.22-23.4-.22-6.24,0-15.41.07-27.52.22-3.26-12.24-7.96-26.64-14.11-43.18h-56.03c-6.45,13.06-13.12,27.45-20.02,43.18-13.82-.15-22.28-.22-25.4-.22-5.65,0-14.75.07-27.3.22ZM101.51,95.54h34.57c-8.59-26.15-13.3-40.55-14.11-43.22-4.89,10.89-9.05,19.81-12.45,26.78l-8.01,16.44Z"/>
    <path class="cls-2" d="M216.1,19.19c11.57.15,19.73.22,24.47.22,5.93,0,13.83-.07,23.69-.22l-3.31,47.3c-.66,8.9-1.16,17.25-1.49,25.04-.33,7.79-.5,13.17-.5,16.14,0,5.64.41,10.35,1.22,14.13.82,3.78,2.3,6.99,4.45,9.63,2.15,2.63,5.13,4.62,8.95,5.95,3.82,1.34,7.8,2,11.95,2,3.56,0,6.9-.49,10.01-1.46,2.44-.79,4.63-1.9,6.56-3.31,1.7-1.33,3.19-2.87,4.45-4.64,1.56-2.12,2.93-4.77,4.11-7.95,1.19-3,2.07-6.89,2.67-11.66.67-4.86,1.56-15.9,2.67-33.13.96-14.67,1.71-28.1,2.23-40.29.45-11.84.85-17.76,1.22-17.76h49.08l-5.41,79.02c-.07,1.49-.11,2.71-.11,3.67-.3,15.43-1.24,26.32-2.84,32.67-1.6,6.34-4.25,11.85-7.96,16.53-3.71,4.67-9.13,8.89-16.25,12.63-7.12,3.75-15.21,6.4-24.27,7.96-9.06,1.56-18.22,2.34-27.5,2.34-8.31,0-16.33-.59-24.05-1.78-7.13-1.19-13.55-2.91-19.26-5.18-5.71-2.26-10.69-4.91-14.92-7.96-3.86-2.82-6.83-5.69-8.91-8.63-2.08-2.93-3.71-6.44-4.9-10.52-1.34-4.6-2-9.53-2-14.8,0-1.78.07-4.47.22-8.07.15-3.6.49-8.77,1.01-15.53l1.45-17.81c.37-4.67.78-11.54,1.23-20.59l2.01-43.96Z"/>
  </g>
  <g>
    <path class="cls-3" d="M698.14,123.58c1.54-15.09,2.47-31.71,2.78-49.85l-19.83.51.23-5.17c.12-2.76.22-5.79.28-9.08,8.82.06,19.09.09,30.83.09l11.5-.05h11.18l6.05-.05-.28,4.56c-.12,2.45-.21,4.47-.26,6.07-.05,1.6-.07,2.81-.07,3.62-6.64-.34-12.12-.51-16.43-.51h-3.26c-.47,5.49-.83,10.56-1.08,15.21-.34,6.66-.61,13.14-.8,19.41-.19,6.28-.28,11.35-.28,15.23-5.09-.06-8.38-.09-9.87-.09-1.34,0-4.9.03-10.71.09Z"/>
    <path class="cls-3" d="M790.1,109.51c-.4,1.86-1.18,6.37-2.33,13.51-3.6.71-6.63,1.19-9.08,1.42-2.45.23-4.94.35-7.45.35-3.7,0-7.1-.26-10.2-.77-3.11-.51-5.78-1.42-8.04-2.72-2.25-1.3-4.14-2.92-5.66-4.86-1.52-1.94-2.68-4.24-3.47-6.91-.79-2.67-1.19-5.41-1.19-8.24,0-3.97.79-7.86,2.38-11.66,1.58-3.8,3.63-6.77,6.13-8.91,2.5-2.14,5.38-3.66,8.64-4.56,3.26-.9,6.6-1.35,10.02-1.35s6.92.41,10.13,1.23c3.21.82,5.94,2.26,8.18,4.31,2.24,2.05,3.83,4.36,4.78,6.94.95,2.58,1.42,5.36,1.42,8.34,0,1.77-.2,3.74-.61,5.92l-32.66.05c-.03.5-.05.94-.05,1.35,0,3.34,1.2,5.8,3.59,7.38,2.39,1.58,5.31,2.37,8.76,2.37,2.05,0,4.39-.24,7.01-.72,2.62-.48,5.86-1.3,9.71-2.45ZM761.45,94.46h15.37c.03-.53.05-.98.05-1.35,0-1.61-.29-3-.86-4.15-.58-1.15-1.4-1.99-2.47-2.52-1.07-.53-2.28-.79-3.61-.79-.93,0-1.83.15-2.7.44-.87.3-1.65.73-2.35,1.3-.7.58-1.28,1.23-1.75,1.98-.47.75-.81,1.47-1.03,2.17-.22.7-.44,1.67-.65,2.91Z"/>
    <path class="cls-3" d="M800.2,123.58c.43-3.98.74-7.2.93-9.69.25-3.38.49-7.62.74-12.72l.51-11.04c.22-5,.37-9.78.46-14.35.12-5.47.18-10.73.18-15.79,4.35.06,7.62.09,9.79.09,2.52,0,5.5-.03,8.95-.09-.72,8.14-1.37,18.25-1.97,30.33-.59,12.08-.89,23.17-.89,33.26-3.6-.06-6.64-.09-9.12-.09-2.85,0-6.05.03-9.59.09ZM820.75,96.82l8.01-11.54,6.01-9.26c4.29.06,7.53.09,9.74.09,3.04,0,6.65-.03,10.81-.09l-9.27,12.05c-2.17,2.76-4.39,5.74-6.66,8.93,2.17,4.01,7.41,12.87,15.7,26.58-3.63-.06-6.91-.09-9.83-.09s-6.4.03-10.25.09l-2.89-5.83c-1.02-2.02-1.91-3.71-2.66-5.08-.28-.56-2.41-4.37-6.38-11.42l-2.33-4.43Z"/>
  </g>
  <path class="cls-2" d="M418.87,171.11c3.69-36.06,5.9-75.76,6.63-119.09l-47.37,1.22.56-12.35c.3-6.6.52-13.84.67-21.7,21.06.15,45.62.22,73.66.22l27.48-.11h26.7l14.46-.11-.67,10.9c-.3,5.85-.5,10.68-.61,14.5-.11,3.82-.17,6.71-.17,8.65-15.87-.82-28.95-1.22-39.25-1.22h-7.78c-1.12,13.11-1.98,25.22-2.58,36.33-.82,15.92-1.46,31.38-1.91,46.38s-.67,27.13-.67,36.38c-12.16-.15-20.02-.22-23.58-.22-3.19,0-11.72.07-25.58.22Z"/>
</svg>